<svg width="19" height="23" viewBox="0 0 19 23" fill="none" xmlns="http://www.w3.org/2000/svg">
<path d="M14.0416 18.4198C13.9753 18.348 13.9089 18.2761 13.8426 18.2044C13.3752 17.7077 13.1434 17.134 13.3275 16.3735C11.5576 16.9316 9.85787 17.0579 8.10266 16.6675C8.05667 17.1781 8.03824 17.6447 7.96705 18.1036C7.87996 18.6653 7.74688 19.2201 7.63782 19.7785C7.59977 19.973 7.55801 20.1688 7.54549 20.3656C7.50829 20.9517 7.52165 21.5434 7.44048 22.123C7.39872 22.4211 7.19817 22.6984 7.08031 22.9605H5.76627L5.77337 22.9445C5.84355 22.7589 5.91355 22.5732 5.98373 22.3876L5.98018 22.392C6.0512 22.3228 6.12205 22.2534 6.19307 22.1842L6.1885 22.1886C6.22435 22.1536 6.2602 22.1188 6.29605 22.0837L6.48949 22.062C6.50826 21.7514 6.50539 21.8655 6.50826 21.7514C6.5223 21.197 6.51401 20.6411 6.48341 20.0873C6.47208 19.884 6.37755 19.6851 6.32107 19.4842C6.28184 19.4851 6.24261 19.4861 6.20338 19.4871C5.99388 20.2221 5.78437 20.9573 5.57486 21.6922L5.58416 21.6883C5.43417 21.9527 5.22314 22.4655 5.07315 22.7299C4.88664 22.7464 4.36075 22.7148 3.92533 22.7173C3.96084 22.368 4.09409 22.185 4.32051 21.9874C4.80733 21.5625 4.93838 20.9392 4.93652 20.3423C4.93399 19.5087 4.81951 18.6755 4.75289 17.842C4.84741 17.6745 4.9022 17.4607 5.04272 17.3469C5.99371 16.5766 6.76952 15.6562 7.49375 14.6918C8.19482 13.7582 8.90045 12.8264 9.56111 11.8656C10.2887 10.8074 11.0425 9.75112 11.2094 8.43391C12.4418 8.56019 13.6184 8.85204 14.7229 9.42737C15.0604 9.60314 15.484 9.62287 15.868 9.71413C16.0104 9.821 16.2214 9.89927 16.2835 10.0397C16.5963 10.7472 16.9024 11.4607 17.1498 12.1915C17.454 13.0905 17.5353 14.0124 17.378 14.9633C17.1897 16.1018 16.6741 17.0816 16.0101 18.0111C15.8996 18.1658 15.8638 18.3708 15.7934 18.5527L15.796 18.5497C15.6807 18.629 15.5587 18.7007 15.4514 18.7888C15.1609 19.0271 15.0907 19.4894 14.6284 19.5542C14.6221 19.5297 14.6191 19.505 14.6196 19.4797C14.5952 19.435 14.5711 19.3904 14.5467 19.3457C14.3783 19.0371 14.2097 18.7286 14.0413 18.42L14.0416 18.4198ZM2.03096 5.17794C1.85409 5.17071 1.67096 5.30439 1.4907 5.37295C1.4907 5.37295 1.32567 6.70184 1.32567 7.37056C1.32567 8.03928 1.56088 8.60622 1.60078 9.23532C1.62919 9.68338 1.65168 10.1624 1.83025 10.5627C2.04466 11.043 2.13783 11.5072 2.11111 12.0179C2.03705 13.4369 2.79375 14.397 3.95357 15.1282C4.47523 14.577 5.04153 14.0594 5.50908 13.4678C6.44485 12.2836 7.244 11.0149 7.68398 9.56483C7.77563 9.26278 7.836 8.95201 7.92545 8.58518C7.97415 8.53684 8.07408 8.43736 8.17402 8.33788L5.77388 8.3313C5.73854 8.30023 5.71385 8.27836 5.67851 8.24728L5.37482 5.3672C4.26031 5.3006 3.14614 5.22349 2.03062 5.17778L2.03096 5.17794ZM4.54304 1.74522C4.14127 0.956631 3.5513 0.347268 2.65746 0C2.64326 0.237925 2.63176 0.428494 2.61924 0.639289C2.32062 0.429974 2.05649 0.244995 1.71543 0.0059191C1.75906 0.433098 1.80133 0.731203 1.81756 1.03079C1.84952 1.62305 1.58793 1.9205 0.974455 2.00337C0.854904 2.01948 0.730789 2.00337 0.610562 2.01701C0.250728 2.05746 0.0584662 2.25428 0.010105 2.60286C-0.0531366 3.058 0.186133 3.3561 0.569134 3.5373C0.967691 3.72589 1.39263 3.86204 1.87878 4.04916C1.80759 4.28248 1.73521 4.51317 1.66724 4.74501C1.60603 4.95366 1.54972 5.16364 1.49121 5.37311C1.67146 5.30455 1.85443 5.17087 2.03147 5.17811C3.14699 5.22382 4.26116 5.30077 5.37566 5.36752C5.31276 4.11345 5.12354 2.8842 4.54338 1.74555L4.54304 1.74522ZM16.3479 19.2196C16.3811 19.2533 16.414 19.2868 16.4472 19.3206C16.4818 19.3544 16.5165 19.3883 16.5512 19.422C16.5857 19.4542 16.62 19.4865 16.6545 19.5187C16.7813 19.6007 16.9081 19.683 17.0348 19.765C17.0963 19.4435 17.4719 18.9812 17.7861 18.7569C17.9158 18.6643 17.9729 18.4789 18.0734 18.3429C18.1295 18.2669 18.2068 18.2057 18.2746 18.138C18.2472 17.9236 18.2041 17.71 18.1956 17.4949C18.1714 16.8778 18.2112 16.2688 18.0123 15.6527C17.7734 14.9128 17.8662 14.1314 17.9105 13.3479C18.6397 13.2054 18.9499 12.743 18.9909 12.1207C19.0402 11.3689 18.8953 10.6438 18.411 10.0287C18.0639 9.58785 17.5936 9.34039 17.0103 9.42967C16.6239 9.4887 16.2487 9.61662 15.8684 9.7138C16.0107 9.82068 16.2218 9.89894 16.2838 10.0394C16.5966 10.7469 16.9027 11.4603 17.1501 12.1912C17.4543 13.0901 17.5356 14.0121 17.3784 14.9629C17.19 16.1014 16.6744 17.0812 16.0104 18.0107C15.9 18.1655 15.8641 18.3705 15.7938 18.5524C15.9786 18.7748 16.1633 18.9971 16.3481 19.2196H16.3479ZM9.95239 8.38063C9.84603 9.71495 9.19248 10.8373 8.46706 11.9219C7.82839 12.8767 7.18617 13.8342 6.4692 14.7331C5.95431 15.3786 5.31377 15.9296 4.72921 16.5227C4.73716 16.9624 4.74511 17.4022 4.75306 17.8419C4.84758 17.6743 4.90237 17.4606 5.04288 17.3468C5.99388 16.5764 6.76968 15.656 7.49392 14.6916C8.19499 13.758 8.90062 12.8262 9.56128 11.8655C10.2889 10.8072 11.0427 9.75096 11.2096 8.43374C10.7906 8.41598 10.3716 8.39839 9.95256 8.38063H9.95239ZM4.52106 15.5067C5.06199 14.9271 5.6704 14.3932 6.12831 13.757C6.83597 12.7743 7.46855 11.7369 8.07848 10.6928C8.42445 10.1007 8.67606 9.45565 8.70853 8.75043C8.71428 8.62349 8.84769 8.50231 8.9221 8.37833C8.86088 8.37997 8.79984 8.38162 8.73863 8.38326C8.66017 8.36764 8.58171 8.35186 8.50342 8.33624C8.39367 8.33689 8.2841 8.33739 8.17436 8.33805C8.07442 8.43752 7.97432 8.537 7.92579 8.58534C7.83634 8.95201 7.7758 9.26294 7.68432 9.56499C7.24433 11.0151 6.44519 12.2838 5.50942 13.468C5.04187 14.0596 4.47557 14.5772 3.95391 15.1283C4.14296 15.2545 4.33201 15.3806 4.52106 15.5069V15.5067ZM9.22494 8.37817C9.26553 9.48673 8.75689 10.4284 8.2119 11.3383C7.6855 12.2169 7.09384 13.0605 6.49338 13.8942C6.14014 14.3846 5.71825 14.8288 5.31952 15.2875C5.13183 15.5034 4.92604 15.7045 4.72837 15.9122C4.72871 16.1157 4.72887 16.3191 4.72921 16.5227C5.31377 15.9296 5.95431 15.3786 6.4692 14.7331C7.18617 13.8343 7.82856 12.8769 8.46706 11.9219C9.19248 10.8373 9.84603 9.71495 9.95239 8.38063C9.70991 8.37981 9.46743 8.37899 9.22478 8.37817H9.22494ZM17.0542 19.8454C17.1465 20.0294 17.3158 20.2127 17.317 20.3972C17.3212 21.0516 17.2724 21.7069 17.2296 22.3608C17.2259 22.4187 17.1205 22.4703 17.0623 22.5249C17.0234 22.5532 16.9844 22.5815 16.9455 22.6097C16.9118 22.6446 16.8782 22.6794 16.8445 22.7141C16.8078 22.7455 16.771 22.7768 16.7343 22.8082C16.792 22.8713 16.8467 22.9859 16.9076 22.9891C17.2494 23.0068 17.5925 22.9976 17.9504 22.9976C18.2514 22.2829 18.3546 21.5847 18.2433 20.8543C18.2213 20.7096 18.1799 20.5286 18.2441 20.4171C18.6824 19.6568 18.5659 18.9009 18.2746 18.1378C18.2068 18.2056 18.1295 18.2667 18.0734 18.3427C17.9729 18.4787 17.9158 18.6642 17.7861 18.7567C17.4719 18.981 17.0963 19.4434 17.0348 19.7648C17.0397 19.792 17.0461 19.8188 17.0542 19.8452V19.8454ZM8.92226 8.37817C8.84786 8.50198 8.71445 8.62332 8.7087 8.75026C8.67623 9.45548 8.42462 10.1005 8.07865 10.6926C7.46855 11.7369 6.83614 12.7743 6.12847 13.7569C5.6704 14.393 5.06216 14.9268 4.52123 15.5065C4.59039 15.6417 4.65938 15.7768 4.72854 15.912C4.92621 15.7042 5.132 15.5032 5.31969 15.2873C5.71842 14.8288 6.14031 14.3845 6.49355 13.894C7.09384 13.0604 7.68567 12.2167 8.21207 11.3382C8.75706 10.4282 9.2657 9.48656 9.22511 8.378C9.12416 8.378 9.02338 8.378 8.92243 8.378L8.92226 8.37817ZM8.50342 8.33607C8.58188 8.35169 8.66034 8.36748 8.73863 8.3831C8.66017 8.36748 8.58171 8.35169 8.50342 8.33607ZM5.68325 8.28938C5.71352 8.30335 5.74395 8.31733 5.77422 8.3313C5.74717 8.31075 5.71673 8.29677 5.68325 8.28938ZM13.835 21.9175C13.6923 22.0139 13.5496 22.1102 13.4068 22.2066C13.3791 22.3619 13.3514 22.5173 13.3223 22.6801H14.5438C14.5438 22.4402 14.5274 22.2243 14.5496 22.0124C14.5643 21.8716 14.5954 21.7021 14.6862 21.6043C15.4941 20.7331 15.8131 19.7005 15.7963 18.5496C15.681 18.6288 15.5591 18.7005 15.4517 18.7886C15.1612 19.0269 15.091 19.4893 14.6287 19.554C14.6419 20.4301 14.3697 21.2154 13.8352 21.9175H13.835Z" fill="url(#paint0_linear_73_128)"/>
<defs>
<linearGradient id="paint0_linear_73_128" x1="-2.93367" y1="7.85759" x2="19.9189" y2="21.3702" gradientUnits="userSpaceOnUse">
<stop stop-color="#F6DDD7"/>
<stop offset="0.25" stop-color="#FCABE6"/>
<stop offset="0.3" stop-color="#F3ADE6"/>
<stop offset="0.38" stop-color="#DDB3E8"/>
<stop offset="0.48" stop-color="#B8BCEC"/>
<stop offset="0.59" stop-color="#85CAF1"/>
<stop offset="0.7" stop-color="#50D8F6"/>
<stop offset="0.76" stop-color="#50D8F6"/>
<stop offset="0.86" stop-color="#B58FE8"/>
</linearGradient>
</defs>
</svg>
