<svg width="83" height="32" viewBox="0 0 83 32" fill="none" xmlns="http://www.w3.org/2000/svg">
<rect width="32" height="32" rx="5" fill="#6E56CF"/>
<path d="M20 18V26H24V18H20Z" fill="white"/>
<path d="M8 6V26H12V18H20V14H12V10H20V14H24V6H8Z" fill="white"/>
<path fill-rule="evenodd" clip-rule="evenodd" d="M36.1674 12.1674C36.3905 11.9442 36.7523 11.9442 36.9755 12.1674L40 15.1919L43.0245 12.1674C43.2477 11.9442 43.6095 11.9442 43.8326 12.1674C44.0558 12.3905 44.0558 12.7523 43.8326 12.9755L40.8081 16L43.8326 19.0245C44.0558 19.2477 44.0558 19.6095 43.8326 19.8326C43.6095 20.0558 43.2477 20.0558 43.0245 19.8326L40 16.8081L36.9755 19.8326C36.7523 20.0558 36.3905 20.0558 36.1674 19.8326C35.9442 19.6095 35.9442 19.2477 36.1674 19.0245L39.1919 16L36.1674 12.9755C35.9442 12.7523 35.9442 12.3905 36.1674 12.1674Z" fill="#0F0F0F"/>
<path d="M75.0712 0H55.1288C51.1917 0 48 2.98634 48 6.67019V25.3298C48 29.0137 51.1917 32 55.1288 32H75.0712C79.0083 32 82.2 29.0137 82.2 25.3298V6.67019C82.2 2.98634 79.0083 0 75.0712 0Z" fill="black"/>
<path d="M70.0416 22.4198C69.9753 22.348 69.9089 22.2761 69.8426 22.2044C69.3752 21.7077 69.1434 21.134 69.3275 20.3735C67.5576 20.9316 65.8579 21.0579 64.1027 20.6675C64.0567 21.1781 64.0382 21.6447 63.967 22.1036C63.88 22.6653 63.7469 23.2201 63.6378 23.7785C63.5998 23.973 63.558 24.1688 63.5455 24.3656C63.5083 24.9517 63.5217 25.5434 63.4405 26.123C63.3987 26.4211 63.1982 26.6984 63.0803 26.9605H61.7663L61.7734 26.9445C61.8435 26.7589 61.9136 26.5732 61.9837 26.3876L61.9802 26.392C62.0512 26.3228 62.122 26.2534 62.1931 26.1842L62.1885 26.1886C62.2244 26.1536 62.2602 26.1188 62.296 26.0837L62.4895 26.062C62.5083 25.7514 62.5054 25.8655 62.5083 25.7514C62.5223 25.197 62.514 24.6411 62.4834 24.0873C62.4721 23.884 62.3776 23.6851 62.3211 23.4842C62.2818 23.4851 62.2426 23.4861 62.2034 23.4871C61.9939 24.2221 61.7844 24.9573 61.5749 25.6922L61.5842 25.6883C61.4342 25.9527 61.2231 26.4655 61.0732 26.7299C60.8866 26.7464 60.3608 26.7148 59.9253 26.7173C59.9608 26.368 60.0941 26.185 60.3205 25.9874C60.8073 25.5625 60.9384 24.9392 60.9365 24.3423C60.934 23.5087 60.8195 22.6755 60.7529 21.842C60.8474 21.6745 60.9022 21.4607 61.0427 21.3469C61.9937 20.5766 62.7695 19.6562 63.4937 18.6918C64.1948 17.7582 64.9005 16.8264 65.5611 15.8656C66.2887 14.8074 67.0425 13.7511 67.2094 12.4339C68.4418 12.5602 69.6184 12.852 70.7229 13.4274C71.0604 13.6031 71.484 13.6229 71.868 13.7141C72.0104 13.821 72.2214 13.8993 72.2835 14.0397C72.5963 14.7472 72.9024 15.4607 73.1498 16.1915C73.454 17.0905 73.5353 18.0124 73.378 18.9633C73.1897 20.1018 72.6741 21.0816 72.0101 22.0111C71.8996 22.1658 71.8638 22.3708 71.7934 22.5527L71.796 22.5497C71.6807 22.629 71.5587 22.7007 71.4514 22.7888C71.1609 23.0271 71.0907 23.4894 70.6284 23.5542C70.6221 23.5297 70.6191 23.505 70.6196 23.4797C70.5952 23.435 70.5711 23.3904 70.5467 23.3457C70.3783 23.0371 70.2097 22.7286 70.0413 22.42L70.0416 22.4198ZM58.031 9.17794C57.8541 9.17071 57.671 9.30439 57.4907 9.37295C57.4907 9.37295 57.3257 10.7018 57.3257 11.3706C57.3257 12.0393 57.5609 12.6062 57.6008 13.2353C57.6292 13.6834 57.6517 14.1624 57.8302 14.5627C58.0447 15.043 58.1378 15.5072 58.1111 16.0179C58.037 17.4369 58.7937 18.397 59.9536 19.1282C60.4752 18.577 61.0415 18.0594 61.5091 17.4678C62.4449 16.2836 63.244 15.0149 63.684 13.5648C63.7756 13.2628 63.836 12.952 63.9254 12.5852C63.9741 12.5368 64.0741 12.4374 64.174 12.3379L61.7739 12.3313C61.7385 12.3002 61.7139 12.2784 61.6785 12.2473L61.3748 9.3672C60.2603 9.3006 59.1461 9.22349 58.0306 9.17778L58.031 9.17794ZM60.543 5.74522C60.1413 4.95663 59.5513 4.34727 58.6575 4C58.6433 4.23792 58.6318 4.42849 58.6192 4.63929C58.3206 4.42997 58.0565 4.24499 57.7154 4.00592C57.7591 4.4331 57.8013 4.7312 57.8176 5.03079C57.8495 5.62305 57.5879 5.9205 56.9745 6.00337C56.8549 6.01948 56.7308 6.00337 56.6106 6.01701C56.2507 6.05746 56.0585 6.25428 56.0101 6.60286C55.9469 7.058 56.1861 7.3561 56.5691 7.5373C56.9677 7.72589 57.3926 7.86204 57.8788 8.04916C57.8076 8.28248 57.7352 8.51317 57.6672 8.74501C57.606 8.95366 57.5497 9.16364 57.4912 9.37311C57.6715 9.30455 57.8544 9.17087 58.0315 9.17811C59.147 9.22382 60.2612 9.30077 61.3757 9.36752C61.3128 8.11345 61.1235 6.8842 60.5434 5.74555L60.543 5.74522ZM72.3479 23.2196C72.3811 23.2533 72.414 23.2868 72.4472 23.3206C72.4818 23.3544 72.5165 23.3883 72.5512 23.422C72.5857 23.4542 72.62 23.4865 72.6545 23.5187C72.7813 23.6007 72.9081 23.683 73.0348 23.765C73.0963 23.4435 73.4719 22.9812 73.7861 22.7569C73.9158 22.6643 73.9729 22.4789 74.0734 22.3429C74.1295 22.2669 74.2068 22.2057 74.2746 22.138C74.2472 21.9236 74.2041 21.71 74.1956 21.4949C74.1714 20.8778 74.2112 20.2688 74.0123 19.6527C73.7734 18.9128 73.8662 18.1314 73.9105 17.3479C74.6397 17.2054 74.9499 16.743 74.9909 16.1207C75.0402 15.3689 74.8953 14.6438 74.411 14.0287C74.0639 13.5878 73.5936 13.3404 73.0103 13.4297C72.6239 13.4887 72.2487 13.6166 71.8684 13.7138C72.0107 13.8207 72.2218 13.8989 72.2838 14.0394C72.5966 14.7469 72.9027 15.4603 73.1501 16.1912C73.4543 17.0901 73.5356 18.0121 73.3784 18.9629C73.19 20.1014 72.6744 21.0812 72.0104 22.0107C71.9 22.1655 71.8641 22.3705 71.7938 22.5524C71.9786 22.7748 72.1633 22.9971 72.3481 23.2196H72.3479ZM65.9524 12.3806C65.846 13.7149 65.1925 14.8373 64.4671 15.9219C63.8284 16.8767 63.1862 17.8342 62.4692 18.7331C61.9543 19.3786 61.3138 19.9296 60.7292 20.5227C60.7372 20.9624 60.7451 21.4022 60.7531 21.8419C60.8476 21.6743 60.9024 21.4606 61.0429 21.3468C61.9939 20.5764 62.7697 19.656 63.4939 18.6916C64.195 17.758 64.9006 16.8262 65.5613 15.8655C66.2889 14.8072 67.0427 13.751 67.2096 12.4337C66.7906 12.416 66.3716 12.3984 65.9526 12.3806H65.9524ZM60.5211 19.5067C61.062 18.9271 61.6704 18.3932 62.1283 17.757C62.836 16.7743 63.4686 15.7369 64.0785 14.6928C64.4244 14.1007 64.6761 13.4556 64.7085 12.7504C64.7143 12.6235 64.8477 12.5023 64.9221 12.3783C64.8609 12.38 64.7998 12.3816 64.7386 12.3833C64.6602 12.3676 64.5817 12.3519 64.5034 12.3362C64.3937 12.3369 64.2841 12.3374 64.1744 12.338C64.0744 12.4375 63.9743 12.537 63.9258 12.5853C63.8363 12.952 63.7758 13.2629 63.6843 13.565C63.2443 15.0151 62.4452 16.2838 61.5094 17.468C61.0419 18.0596 60.4756 18.5772 59.9539 19.1283C60.143 19.2545 60.332 19.3806 60.5211 19.5069V19.5067ZM65.2249 12.3782C65.2655 13.4867 64.7569 14.4284 64.2119 15.3383C63.6855 16.2169 63.0938 17.0605 62.4934 17.8942C62.1401 18.3846 61.7183 18.8288 61.3195 19.2875C61.1318 19.5034 60.926 19.7045 60.7284 19.9122C60.7287 20.1157 60.7289 20.3191 60.7292 20.5227C61.3138 19.9296 61.9543 19.3786 62.4692 18.7331C63.1862 17.8343 63.8286 16.8769 64.4671 15.9219C65.1925 14.8373 65.846 13.7149 65.9524 12.3806C65.7099 12.3798 65.4674 12.379 65.2248 12.3782H65.2249ZM73.0542 23.8454C73.1465 24.0294 73.3158 24.2127 73.317 24.3972C73.3212 25.0516 73.2724 25.7069 73.2296 26.3608C73.2259 26.4187 73.1205 26.4703 73.0623 26.5249C73.0234 26.5532 72.9844 26.5815 72.9455 26.6097C72.9118 26.6446 72.8782 26.6794 72.8445 26.7141C72.8078 26.7455 72.771 26.7768 72.7343 26.8082C72.792 26.8713 72.8467 26.9859 72.9076 26.9891C73.2494 27.0068 73.5925 26.9976 73.9504 26.9976C74.2514 26.2829 74.3546 25.5847 74.2433 24.8543C74.2213 24.7096 74.1799 24.5286 74.2441 24.4171C74.6824 23.6568 74.5659 22.9009 74.2746 22.1378C74.2068 22.2056 74.1295 22.2667 74.0734 22.3427C73.9729 22.4787 73.9158 22.6642 73.7861 22.7567C73.4719 22.981 73.0963 23.4434 73.0348 23.7648C73.0397 23.792 73.0461 23.8188 73.0542 23.8452V23.8454ZM64.9223 12.3782C64.8479 12.502 64.7144 12.6233 64.7087 12.7503C64.6762 13.4555 64.4246 14.1005 64.0786 14.6926C63.4686 15.7369 62.8361 16.7743 62.1285 17.7569C61.6704 18.393 61.0622 18.9268 60.5212 19.5065C60.5904 19.6417 60.6594 19.7768 60.7285 19.912C60.9262 19.7042 61.132 19.5032 61.3197 19.2873C61.7184 18.8288 62.1403 18.3845 62.4936 17.894C63.0938 17.0604 63.6857 16.2167 64.2121 15.3382C64.7571 14.4282 65.2657 13.4866 65.2251 12.378C65.1242 12.378 65.0234 12.378 64.9224 12.378L64.9223 12.3782ZM64.5034 12.3361C64.5819 12.3517 64.6603 12.3675 64.7386 12.3831C64.6602 12.3675 64.5817 12.3517 64.5034 12.3361ZM61.6832 12.2894C61.7135 12.3034 61.744 12.3173 61.7742 12.3313C61.7472 12.3108 61.7167 12.2968 61.6832 12.2894ZM69.835 25.9175C69.6923 26.0139 69.5496 26.1102 69.4068 26.2066C69.3791 26.3619 69.3514 26.5173 69.3223 26.6801H70.5438C70.5438 26.4402 70.5274 26.2243 70.5496 26.0124C70.5643 25.8716 70.5954 25.7021 70.6862 25.6043C71.4941 24.7331 71.8131 23.7005 71.7963 22.5496C71.681 22.6288 71.5591 22.7005 71.4517 22.7886C71.1612 23.0269 71.091 23.4893 70.6287 23.554C70.6419 24.4301 70.3697 25.2154 69.8352 25.9175H69.835Z" fill="url(#paint0_linear_54_127)"/>
<defs>
<linearGradient id="paint0_linear_54_127" x1="53.0663" y1="11.8576" x2="75.9189" y2="25.3702" gradientUnits="userSpaceOnUse">
<stop stop-color="#F6DDD7"/>
<stop offset="0.25" stop-color="#FCABE6"/>
<stop offset="0.3" stop-color="#F3ADE6"/>
<stop offset="0.38" stop-color="#DDB3E8"/>
<stop offset="0.48" stop-color="#B8BCEC"/>
<stop offset="0.59" stop-color="#85CAF1"/>
<stop offset="0.7" stop-color="#50D8F6"/>
<stop offset="0.76" stop-color="#50D8F6"/>
<stop offset="0.86" stop-color="#B58FE8"/>
</linearGradient>
</defs>
</svg>
